# xmcd
#
# Track frame offsets:
#	150
#	12108
#	26926
#	38639
#	50969
#	61823
#	74020
#	86781
#	98870
#	112411
#	125861
#	137227
#	150448
#	172646
#	184892
#	197723
#	216620
#	232141
#	245480
#	258401
#	272363
#	284013
#	295967
#	307495
#
# Disc length: 4268 seconds
#
# Revision: 0
# Processed by: cddbd v1.5.1PL2 Copyright (c) Steve Scherf et al.
# Submitted via: dBpowerAMP V4.0
#
DISCID=8710aa18
DTITLE=The Supremes - Greatest Hits
DYEAR=1900
DGENRE=
TTITLE0=Baby love
TTITLE1=Can't ttake my eyes off you
TTITLE2=Going' down for the third time
TTITLE3=Hang on sloopy
TTITLE4=He's my sunny boy
TTITLE5=Hear a symphony
TTITLE6=How long has that evening train been gone
TTITLE7=I can't help myself
TTITLE8=Love child
TTITLE9=Love is like a itching in my
TTITLE10=Money
TTITLE11=No matter what sign you are
TTITLE12=River deep, mountain high
TTITLE13=Shake
TTITLE14=Shake me, wake me
TTITLE15=Stoned love
TTITLE16=Stop! in the name of love
TTITLE17=TCB
TTITLE18=The happening
TTITLE19=The weight
TTITLE20=These boots are made for walk
TTITLE21=This old heart of mine
TTITLE22=Where did our love go
TTITLE23=You can't hurry love
EXTD=
EXTT0=
EXTT1=
EXTT2=
EXTT3=
EXTT4=
EXTT5=
EXTT6=
EXTT7=
EXTT8=
EXTT9=
EXTT10=
EXTT11=
EXTT12=
EXTT13=
EXTT14=
EXTT15=
EXTT16=
EXTT17=
EXTT18=
EXTT19=
EXTT20=
EXTT21=
EXTT22=
EXTT23=
PLAYORDER=
